<?xml version="1.0" standalone="no"?>
<!DOCTYPE svg PUBLIC "-//W3C//DTD SVG 20010904//EN"
 "http://www.w3.org/TR/2001/REC-SVG-20010904/DTD/svg10.dtd">
<svg version="1.0" xmlns="http://www.w3.org/2000/svg"
 width="16.000000pt" height="16.000000pt" viewBox="0 0 16.000000 16.000000"
 preserveAspectRatio="xMidYMid meet">

<g transform="translate(0.000000,16.000000) scale(0.100000,-0.100000)"
fill="#000000" stroke="none">
<path d="M101 131 c-14 -10 -31 -17 -38 -14 -8 3 -13 -2 -13 -12 0 -14 7 -16
35 -13 19 2 35 0 35 -4 0 -4 -14 -8 -31 -8 -24 0 -30 -3 -25 -16 4 -11 -1 -18
-14 -21 -30 -8 -5 -33 32 -33 26 0 30 3 25 22 -4 12 -1 28 6 36 9 12 22 83 14
82 -1 0 -13 -9 -26 -19z"/>
</g>
</svg>
